HIERARCHY
ROOT Hips
{
	OFFSET 0.000000 0.000000 0.000000
	CHANNELS 6 Xposition Yposition Zposition Zrotation Yrotation Xrotation 
	JOINT LHipJoint
	{
		OFFSET 0.000000 0.000000 0.000000
		CHANNELS 3 Zrotation Yrotation Xrotation
		JOINT LeftUpLeg
		{
			OFFSET 1.363060 -1.794630 0.839290
			CHANNELS 3 Zrotation Yrotation Xrotation
			JOINT LeftLeg
			{
				OFFSET 2.448110 -6.726130 0.000000
				CHANNELS 3 Zrotation Yrotation Xrotation
				JOINT LeftFoot
				{
					OFFSET 2.562200 -7.039590 0.000000
					CHANNELS 3 Zrotation Yrotation Xrotation
					JOINT LeftToeBase
					{
						OFFSET 0.157640 -0.433110 2.322550
						CHANNELS 3 Zrotation Yrotation Xrotation
						End Site
						{
							OFFSET 0.000000 0.000000 0.000000
						}
					}
				}
			}
		}
	}
	JOINT RHipJoint
	{
		OFFSET 0.000000 0.000000 0.000000
		CHANNELS 3 Zrotation Yrotation Xrotation
		JOINT RightUpLeg
		{
			OFFSET -1.305520 -1.794630 0.839290
			CHANNELS 3 Zrotation Yrotation Xrotation
			JOINT RightLeg
			{
				OFFSET -2.542530 -6.985550 0.000000
				CHANNELS 3 Zrotation Yrotation Xrotation
				JOINT RightFoot
				{
					OFFSET -2.568260 -7.056230 0.000000
					CHANNELS 3 Zrotation Yrotation Xrotation
					JOINT RightToeBase
					{
						OFFSET -0.164730 -0.452590 2.363150
						CHANNELS 3 Zrotation Yrotation Xrotation
						End Site
						{
							OFFSET 0.000000 0.000000 0.000000
						}
					}
				}
			}
		}
	}
	JOINT LowerBack
	{
		OFFSET 0.000000 0.000000 0.000000
		CHANNELS 3 Zrotation Yrotation Xrotation
		JOINT Spine
		{
			OFFSET 0.028270 2.035590 -0.193380
			CHANNELS 3 Zrotation Yrotation Xrotation
			JOINT Spine1
			{
				OFFSET 0.056720 2.048850 -0.042750
				CHANNELS 3 Zrotation Yrotation Xrotation
				JOINT Neck
				{
					OFFSET 0.000000 0.000000 0.000000
					CHANNELS 3 Zrotation Yrotation Xrotation
					JOINT Neck1
					{
						OFFSET -0.054170 1.746240 0.172020
						CHANNELS 3 Zrotation Yrotation Xrotation
						JOINT Head
						{
							OFFSET 0.104070 1.761360 -0.123970
							CHANNELS 3 Zrotation Yrotation Xrotation
							End Site
							{
								OFFSET 0.000000 0.000000 0.000000
							}
						}
					}
				}
				JOINT LeftShoulder
				{
					OFFSET 0.000000 0.000000 0.000000
					CHANNELS 3 Zrotation Yrotation Xrotation
					JOINT LeftArm
					{
						OFFSET 3.362410 1.200890 -0.311210
						CHANNELS 3 Zrotation Yrotation Xrotation
						JOINT LeftForeArm
						{
							OFFSET 4.983000 -0.000000 -0.000000
							CHANNELS 3 Zrotation Yrotation Xrotation
							JOINT LeftHand
							{
								OFFSET 3.483560 -0.000000 -0.000000
								CHANNELS 3 Zrotation Yrotation Xrotation
								JOINT LeftFingerBase
								{
									OFFSET 0.000000 0.000000 0.000000
									CHANNELS 3 Zrotation Yrotation Xrotation
									JOINT LeftHandIndex1
									{
										OFFSET 0.715260 -0.000000 -0.000000
										CHANNELS 3 Zrotation Yrotation Xrotation
										End Site
										{
											OFFSET 0.000000 0.000000 0.000000
										}
									}
								}
								JOINT LThumb
								{
									OFFSET 0.000000 0.000000 0.000000
									CHANNELS 3 Zrotation Yrotation Xrotation
									End Site
									{
										OFFSET 0.000000 0.000000 0.000000
									}
								}
							}
						}
					}
				}
				JOINT RightShoulder
				{
					OFFSET 0.000000 0.000000 0.000000
					CHANNELS 3 Zrotation Yrotation Xrotation
					JOINT RightArm
					{
						OFFSET -3.136600 1.374050 -0.404650
						CHANNELS 3 Zrotation Yrotation Xrotation
						JOINT RightForeArm
						{
							OFFSET -5.241900 -0.000000 -0.000000
							CHANNELS 3 Zrotation Yrotation Xrotation
							JOINT RightHand
							{
								OFFSET -3.444170 -0.000000 -0.000000
								CHANNELS 3 Zrotation Yrotation Xrotation
								JOINT RightFingerBase
								{
									OFFSET 0.000000 0.000000 0.000000
									CHANNELS 3 Zrotation Yrotation Xrotation
									JOINT RightHandIndex1
									{
										OFFSET -0.622530 -0.000000 -0.000000
										CHANNELS 3 Zrotation Yrotation Xrotation
										End Site
										{
											OFFSET 0.000000 0.000000 0.000000
										}
									}
								}
								JOINT RThumb
								{
									OFFSET 0.000000 0.000000 0.000000
									CHANNELS 3 Zrotation Yrotation Xrotation
									End Site
									{
										OFFSET 0.000000 0.000000 0.000000
									}
								}
							}
						}
					}
				}
			}
		}
	}
}
MOTION
Frames: 6
Frame Time: 0.008333
18.109777 17.564128 -2.381232 -0.572803 -27.579116 8.743930 5.802207 2.635477 -0.401962 -26.372644 -2.379294 -27.712490 1.540187 13.598202 39.574965 -2.663536 18.672383 -22.679960 0.965700 6.256800 17.531400 -9.657832 -3.185479 0.505212 20.488837 24.287005 -34.835088 -0.927862 -14.653282 36.659814 2.817117 -22.264831 -18.517977 -0.837100 -5.836400 16.310500 -1.216577 -3.501916 11.712610 1.360074 -5.028173 -3.204146 6.624271 -1.968987 -6.661870 -8.480032 -5.212810 -11.795585 9.988202 -6.751687 8.301239 5.488800 -3.248800 4.434600 4.139899 -11.891355 4.154993 12.111455 2.796976 -39.719795 24.808944 -31.115297 -10.832284 -3.439474 -0.957588 54.117763 35.230872 62.024891 33.668600 -7.125000 0.000000 0.000000 -135.034200 -78.708100 143.625700 -3.581247 11.496745 4.346158 -17.210038 -19.670995 -38.188077 -26.799245 34.366294 -8.970788 -0.189610 -0.120393 10.785671 -21.522987 21.195685 -8.116200 7.125000 0.000000 0.000000 4.634700 -7.235000 4.027700 
18.127259 17.579753 -2.438376 -1.213467 -28.847826 9.238334 5.762617 2.604054 -0.416831 -25.688282 -2.080474 -28.038274 1.456298 13.567237 39.366635 -2.563273 18.530372 -23.409092 1.406800 7.502300 21.212300 -9.712604 -3.219479 0.538739 21.287930 23.948981 -34.775596 -1.121459 -14.864172 37.485353 2.526243 -21.286731 -19.101332 -1.235400 -7.048500 19.859000 -0.572563 -3.544207 11.611830 1.416396 -5.011928 -3.230705 6.537675 -1.974628 -6.724786 -8.395471 -4.985124 -11.726701 9.875274 -6.441643 8.382635 5.439400 -3.105500 4.401800 4.124937 -11.851712 4.116254 11.853780 3.053896 -39.199385 23.949149 -30.327305 -10.394059 -3.660091 -1.021252 53.644346 37.195845 62.659604 35.817900 -7.125000 0.000000 0.000000 -139.631300 -78.037400 148.037200 -3.530563 11.463627 4.399723 -17.169602 -19.243144 -38.074567 -25.883475 33.405921 -8.480472 -0.184184 -0.159744 10.790649 -24.311149 22.005627 -9.637500 7.125000 0.000000 0.000000 2.953000 -5.862900 2.639500 
18.139933 17.591990 -2.507756 -1.553487 -30.140797 9.771157 5.746203 2.559438 -0.441860 -25.290430 -1.825426 -28.519989 1.337782 13.522606 39.046626 -2.516105 18.536875 -23.984578 1.844300 8.533900 24.347700 -9.777628 -3.227749 0.565577 21.661560 23.713592 -35.037253 -1.324706 -15.116700 38.288827 2.434409 -20.961931 -19.103610 -1.564800 -7.893800 22.391900 -0.349747 -3.536222 11.405366 1.435185 -4.980841 -3.277362 6.487658 -1.966495 -6.763008 -7.935290 -4.766452 -11.750079 9.668341 -6.170536 8.510217 5.245400 -2.968900 4.390200 4.125485 -11.790260 4.066408 11.761539 3.270403 -38.504969 22.972149 -29.424525 -9.905240 -3.935195 -1.107295 52.769898 39.970216 63.001912 38.752200 -7.125000 0.000000 0.000000 -144.844000 -77.438600 152.746200 -3.478440 11.454162 4.469646 -16.723297 -19.130930 -37.829793 -25.174642 32.548753 -8.101337 -0.186702 -0.204637 10.797585 -27.038891 22.883010 -11.290300 7.125000 0.000000 0.000000 1.365100 -4.340000 1.258300 
18.148784 17.608161 -2.573094 -0.965903 -31.488163 9.733597 5.721320 2.542263 -0.433595 -25.776745 -1.695168 -28.723561 1.197692 13.438437 38.691328 -2.475629 18.760791 -24.733444 2.237200 9.343600 26.876100 -9.796298 -3.219635 0.559264 21.047319 23.517173 -35.207728 -1.547779 -15.354064 39.020642 2.621473 -21.541757 -18.484639 -1.350300 -7.356400 20.775700 -0.998014 -3.419555 11.254331 1.352138 -4.903268 -3.320676 6.464534 -1.917135 -6.804765 -7.480177 -4.632693 -11.691254 9.542289 -6.023141 8.568719 5.090300 -2.890600 4.344000 4.087048 -11.738297 4.035224 11.610767 3.198794 -37.853219 22.223433 -28.710190 -9.543123 -4.155772 -1.194097 51.920831 41.858079 63.180340 40.772200 -7.125000 0.000000 0.000000 -148.063300 -76.999600 155.610800 -3.460099 11.455615 4.550131 -15.874453 -19.430075 -37.237740 -24.661519 31.811843 -7.833053 -0.195284 -0.254935 10.577635 -29.920104 23.709207 -13.138400 7.125000 0.000000 0.000000 -0.271500 -2.740300 -0.258200 
18.157087 17.630122 -2.627179 -0.552669 -32.862599 9.628619 5.662918 2.542290 -0.415244 -26.078329 -1.557383 -28.675660 1.041123 13.303446 38.242503 -2.500130 19.152722 -25.400463 2.495300 9.829300 28.425700 -9.800794 -3.229996 0.546715 20.669250 23.208052 -35.123542 -1.754609 -15.543393 39.739702 2.555867 -21.305634 -18.726568 -1.390900 -7.461600 21.090300 -1.409328 -3.303901 11.170239 1.289325 -4.792040 -3.316969 6.425846 -1.871929 -6.634471 -7.351600 -4.562395 -12.115041 9.547892 -5.934157 8.729720 5.065000 -2.832400 4.499100 4.017166 -11.695067 4.011612 11.181543 3.166817 -37.611457 21.608686 -28.059903 -9.240338 -4.301577 -1.256284 51.582641 42.060747 63.371918 41.085500 -7.125000 0.000000 0.000000 -148.444100 -76.765000 156.059200 -3.436754 11.414556 4.639079 -15.023561 -19.329233 -37.331041 -24.082142 30.970676 -7.527763 -0.202822 -0.308919 10.615711 -32.196879 24.440450 -14.762600 7.125000 0.000000 0.000000 -1.513700 -1.296100 -1.479600 
18.164736 17.655471 -2.675253 -0.665189 -34.187704 9.758661 5.586301 2.542102 -0.399485 -25.853288 -1.457814 -28.549691 0.880222 13.144240 37.724045 -2.535924 19.426299 -25.869016 2.809800 10.380500 30.218000 -9.814487 -3.260590 0.545531 20.829683 22.853501 -34.894416 -1.930834 -15.682920 40.390793 2.396717 -20.810034 -19.282171 -1.678600 -8.161700 23.206400 -1.285659 -3.260657 11.125836 1.287587 -4.713056 -3.301715 6.349569 -1.862170 -6.404862 -7.155224 -4.476525 -12.750442 9.433719 -5.818303 8.974736 4.955700 -2.758000 4.732600 3.949923 -11.631084 3.970188 10.611842 3.299937 -37.166035 20.809424 -27.214313 -8.876387 -4.539464 -1.343263 51.149029 43.709805 63.854595 42.933700 -7.125000 0.000000 0.000000 -150.848200 -76.075000 158.348600 -3.372492 11.353582 4.766573 -14.246588 -18.536513 -38.398878 -23.247870 29.810983 -7.090731 -0.209286 -0.375551 11.454335 -34.219161 25.174818 -16.364500 7.125000 0.000000 0.000000 -2.571300 0.170100 -2.581500 
